<?xml version="1.0" encoding="UTF-8" standalone="no"?>
<!-- Created with Inkscape (http://www.inkscape.org/) -->

<svg
   version="1.1"
   id="svg1"
   width="696.79175"
   height="246.01869"
   viewBox="0 0 696.79175 246.01869"
   xmlns:xlink="http://www.w3.org/1999/xlink"
   xmlns="http://www.w3.org/2000/svg"
   xmlns:svg="http://www.w3.org/2000/svg">
  <defs
     id="defs1">
    <linearGradient
       id="swatch7">
      <stop
         style="stop-color:#050505;stop-opacity:1;"
         offset="0"
         id="stop7" />
    </linearGradient>
    <linearGradient
       xlink:href="#swatch7"
       id="linearGradient3"
       gradientUnits="userSpaceOnUse"
       gradientTransform="translate(-86.305084,50.237287)"
       x1="463.95224"
       y1="218.56433"
       x2="825.68024"
       y2="218.56433" />
  </defs>
  <g
     id="g1"
     transform="translate(-56.743446,-143.09187)">
    <path
       style="fill:#050505;stroke:none"
       d="m 101.57627,364.33898 c 2.52112,-8.75146 14.45615,-20.79846 12.63889,-29.98535 -1.48261,-7.49497 -13.31226,-15.50537 -17.635039,-22.01465 -11.81858,-17.79648 -17.83042,-39.80768 -13.33487,-61 18.960839,-89.38306 151.196499,-121.96365 213.331019,-60 -2.82562,0.81403 -5.3559,1.95184 -8,3.2446 -2.99277,1.46319 -10.3642,3.49978 -10.3642,7.71603 0,3.54761 5.86008,4.52588 8.3642,5.46375 8.67194,3.24786 17.36603,6.42035 26,9.76468 4.69135,1.81717 14.82837,8.05044 19.77161,6.16433 4.58807,-1.75058 2.40496,-8.74539 2.22839,-12.35339 -0.54181,-11.07077 -2.47571,-30.33923 -10.78857,-38.56174 -7.06659,-6.98974 -9.84546,9.06272 -16.22608,7.35495 -5.54034,-1.48288 -12.01538,-9.50259 -16.98535,-12.78936 -11.14813,-7.37259 -23.2709,-12.92542 -36,-16.97529 -78.55856,-24.99408 -186.293579,15.47638 -197.284729,104.97144 -1.45062,11.81158 0.1055,23.5278 3.16977,35 4.8952,18.32709 16.66223,31.32672 27.91281,45.91049 3.28452,4.2576 0.50748,7.76645 -1.37347,12.08951 -3.7771,8.68103 -7.71924,17.2865 -11.42438,26 -1.46814,3.45264 -6.07327,10.89883 -0.76773,13.24304 4.26337,1.88376 10.60117,-1.5278 14.76773,-2.61419 12.817779,-3.34208 30.866179,-13.55555 43.999999,-12.55478 14.33298,1.09213 29.36841,11.27151 44,13.84182 48.62378,8.54163 98.29227,-2.0726 138,-31.91974 26.18823,-19.68493 43.9978,-50.988 44,-83.99615 5.5e-4,-8.1861 0.1452,-27.16434 -8.37115,-31.91357 -7.24836,-4.04212 -2.70386,14.48736 -2.6435,16.91357 0.60559,24.33807 -6.96936,46.8176 -22,66 -30.46051,38.87427 -84.75241,57.55927 -132.98535,50.57178 -12.82971,-1.85865 -25.24091,-6.23267 -37,-11.60034 -5.39664,-2.46338 -11.10501,-7.4986 -17,-8.45987 -9.83948,-1.60447 -29.3493,7.93008 -38,12.48843 m 223,-97 c -7.07349,36.45312 -34.77863,64.10803 -69,76.77161 -11.6759,4.32064 -24.59326,3.95654 -36,8.22839 v 2 c 7.96005,3.35358 19.59018,1.33575 28,-0.081 27.43808,-4.62241 53.15131,-18.71512 68.97144,-41.91898 6.59655,-9.67538 10.79034,-20.39297 12.18365,-32 0.63831,-5.31763 2.67828,-11.85962 -4.15509,-13 z"
       id="path1" />
    <text
       xml:space="preserve"
       style="font-style:normal;font-variant:normal;font-weight:normal;font-stretch:normal;font-size:96px;font-family:Sora;-inkscape-font-specification:Sora;text-align:start;writing-mode:lr-tb;direction:ltr;text-anchor:start;fill:url(#linearGradient3)"
       x="372.27118"
       y="243.45763"
       id="text4"><tspan
         id="tspan4"
         x="372.27118"
         y="243.45763"
         style="font-style:normal;font-variant:normal;font-weight:bold;font-stretch:normal;font-size:96px;font-family:Sora;-inkscape-font-specification:'Sora Bold';fill:url(#linearGradient3);fill-opacity:1">Passing</tspan><tspan
         x="372.27118"
         y="363.45764"
         style="font-style:normal;font-variant:normal;font-weight:bold;font-stretch:normal;font-size:96px;font-family:Sora;-inkscape-font-specification:'Sora Bold';fill:url(#linearGradient3);fill-opacity:1"
         id="tspan5">Circle</tspan></text>
  </g>
</svg>
